<?xml version="1.0" standalone="no"?>
<!DOCTYPE svg PUBLIC "-//W3C//DTD SVG 20010904//EN"
 "http://www.w3.org/TR/2001/REC-SVG-20010904/DTD/svg10.dtd">
<svg version="1.0" xmlns="http://www.w3.org/2000/svg"
 width="800.000000pt" height="538.000000pt" viewBox="0 0 800.000000 538.000000"
 preserveAspectRatio="xMidYMid meet">
<metadata>
Created by potrace 1.13, written by Peter Selinger 2001-2015
</metadata>
<g transform="translate(0.000000,538.000000) scale(0.100000,-0.100000)"
fill="#000000" stroke="none">
<path d="M4272 4540 c-28 -12 -44 -48 -116 -270 -94 -286 -171 -411 -432 -696
-162 -178 -214 -244 -214 -275 0 -34 18 -66 71 -123 44 -48 137 -116 160 -116
4 0 24 44 44 98 124 321 310 567 631 835 44 37 90 84 101 105 35 63 74 191 80
262 l6 67 -39 27 c-47 32 -174 82 -229 90 -22 3 -50 1 -63 -4z"/>
<path d="M2263 4028 c-17 -18 -112 -157 -212 -308 -99 -151 -201 -302 -225
-335 -23 -33 -76 -106 -115 -163 -150 -214 -224 -300 -601 -697 -629 -662
-852 -951 -890 -1148 -10 -54 -9 -69 5 -105 23 -57 109 -133 202 -179 68 -33
84 -38 153 -38 113 0 154 27 245 168 373 575 443 670 985 1337 352 433 511
642 670 880 101 151 210 333 210 350 0 31 -152 151 -284 225 -92 51 -105 52
-143 13z"/>
<path d="M5093 4010 c-340 -20 -477 -82 -709 -321 -231 -239 -394 -534 -444
-803 -17 -94 -47 -127 -113 -128 -33 -1 -55 5 -71 18 -26 20 -93 74 -248 197
-54 42 -103 77 -109 77 -6 0 -37 -56 -69 -123 l-59 -124 -63 9 c-180 26 -314
-36 -361 -169 -21 -60 -32 -150 -23 -197 9 -46 50 -74 171 -115 384 -129 1136
-256 1722 -291 210 -12 840 -13 1213 0 741 24 1304 129 1684 315 l116 56 0 40
c0 22 -7 74 -16 116 -43 207 -135 270 -316 213 -108 -34 -114 -32 -154 58
-126 275 -204 393 -373 561 -431 430 -1076 652 -1778 611z m-321 -327 c39 -37
38 -97 -2 -176 -65 -129 -171 -217 -260 -217 -51 0 -62 6 -79 37 -20 38 -12
88 24 161 59 118 179 220 259 222 19 0 40 -10 58 -27z m1151 -34 c60 -31 163
-138 192 -201 34 -72 34 -140 0 -173 -31 -32 -63 -31 -127 1 -155 79 -268 295
-193 369 30 31 72 32 128 4z m-570 -69 c45 -36 62 -100 62 -240 0 -113 -2
-130 -25 -174 -51 -102 -107 -109 -162 -23 -32 50 -33 54 -36 178 -4 149 7
200 53 246 38 38 71 42 108 13z"/>
<path d="M3129 854 c-46 -15 -120 -53 -140 -70 -38 -34 -158 -39 -854 -36
-701 2 -826 -2 -1031 -38 -393 -69 -488 -217 -184 -286 66 -15 178 -18 915
-24 717 -6 855 -9 940 -23 140 -24 281 -59 490 -122 222 -67 311 -88 535 -125
486 -80 967 -114 1630 -114 357 0 495 4 640 17 554 53 956 149 1296 312 215
102 361 210 366 268 4 69 -21 116 -80 146 -21 10 -87 34 -148 53 l-111 35 -19
-34 c-28 -54 -113 -125 -229 -193 -300 -175 -643 -270 -1122 -310 -224 -18
-798 -32 -917 -21 -61 5 -167 13 -236 16 -777 37 -1258 154 -1530 372 -47 37
-105 95 -131 129 l-45 60 -35 -12z"/>
</g>
</svg>
